<svg id="Layer_1" data-name="Layer 1" xmlns="http://www.w3.org/2000/svg" viewBox="0 0 300 343"><defs><style>.cls-1,.cls-2{fill:#e8d3a2;}.cls-2{fill-rule:evenodd;}</style></defs><title>iSchoolSecondary_RGB_Gold</title><path class="cls-1" d="M193.59,324.09l2.47,2.45v9.61a5.59,5.59,0,0,1-4,1.4c-5.45,0-8.69-6.42-8.69-12.31s3.24-12.3,8.69-12.3a4.05,4.05,0,0,1,3.23,1.35l3.91,3.9v-5.92a14.33,14.33,0,0,0-7.14-1.65c-7.72,0-14.09,6.71-14.09,14.62s6.37,14.62,14.09,14.62c5.41,0,6.41-1,8.35-2.08V326.54l2.46-2.45ZM131.67,311l2.4,2.46V337l-2.4,2.46h9.21L138.42,337V313.47l2.46-2.46Zm-24.43,14.38H118V337l-2.46,2.46h9.22L122.34,337V313.47l2.42-2.46h-9.22l2.46,2.46v9.6H107.24v-9.6l2.47-2.46h-9.27l2.46,2.46V337l-2.46,2.46h9.27L107.24,337Zm-12.92,5.45a5.83,5.83,0,0,0-2.76-5.31l-6.85-4.24a5.38,5.38,0,0,1-2.94-4.44,4.13,4.13,0,0,1,4.34-4,3.13,3.13,0,0,1,1.89.44l2.89,3.57,2.85-4.83L88.09,311a9.2,9.2,0,0,0-2.21-.19c-3.87,0-8.17,2.46-8.17,7.62A7.76,7.76,0,0,0,81.53,325l6.85,4.25a4.43,4.43,0,0,1,2,3.71,4.84,4.84,0,0,1-4.93,5,4.39,4.39,0,0,1-2.31-.58l-3.13-4-2.85,5.22L83,339.67a9.59,9.59,0,0,0,2.12.19c6.41,0,9.17-4.43,9.17-9M59.43,317.72l3.82,11.38H55.52Zm-6.61,19.34,1.88-5.64H64l1.88,5.64-2.42,2.42h9.66L70.62,337,61.8,311H59.14l-9.07,26-2.51,2.51h7.67Zm-30.67,2.42L28.05,321l5.74,18.48h2.65l8.25-26L47.15,311H39.52l2.42,2.41L36.1,332.34l-5.6-18.92L32.91,311H23.27l2.46,2.51,1,3.13-4.87,15.69-5.6-18.92L18.63,311H9l2.46,2.51,8.06,26Zm266.59-63.14c1.2-7.7,2.09-9.38,3.21-9.38a4.4,4.4,0,0,1,2.92,1.44,1.06,1.06,0,0,0,1.45,0,2.67,2.67,0,0,0,1-1.84c0-1-1.08-1.77-2.61-1.77a9.58,9.58,0,0,0-6.73,3.42,16.28,16.28,0,0,0-3.33,8.13H282.2l-1.15,1.24.12.4h3.16c-.52,3.49-1,6.62-1.68,11.59-1,7.05-1.76,9.7-2.37,10.29l-1,.49a6.76,6.76,0,0,1-1.88-.72,1.06,1.06,0,0,0-1.2.28,2.62,2.62,0,0,0-.77,1.76c0,.93,1,1.29,1.73,1.29a7.41,7.41,0,0,0,4.64-2.61c1.73-1.84,3.65-5.73,5.14-13.51.56-2.84,1-5.33,1.52-8.86l4-.4.94-1.24Zm-21.37.76c1.61,0,2.64,1.44,2.64,4.41.09,5.29-2.32,9.82-3.84,10.34a3.25,3.25,0,0,1-1,.17c-1.84,0-2.88-2-2.88-5.06,0-6,2.6-9.1,3.85-9.62a2.92,2.92,0,0,1,1.2-.24m1.36-1.73a10.44,10.44,0,0,0-5,1.49A12.06,12.06,0,0,0,258,287.48c0,2.93,1.36,6.25,5.65,6.25A10.87,10.87,0,0,0,270.1,291a13.63,13.63,0,0,0,4.24-9.86c0-3.33-2-5.78-5.61-5.78m-48.9-7.93,7.25,12.75v10.75l-2.46,2.46h9.21l-2.41-2.46V280.23l7-12.84,2.46-2.46h-7.62l2.41,2.42-5.45,10.18-5.59-10.18,2.41-2.42h-9.65Zm-14.7,23.5V267.25h4.77l3.23,3.28v-5.6H192.72v5.6l3.23-3.28h4.82v23.69l-2.45,2.46h9.22Zm-28.09-26,2.41,2.46v23.55L177,293.4h9.21l-2.46-2.46V267.39l2.46-2.46Zm-6.54,19.84a5.85,5.85,0,0,0-2.74-5.31l-6.82-4.25a5.38,5.38,0,0,1-2.93-4.43,4.12,4.12,0,0,1,4.33-4,3,3,0,0,1,1.86.43l2.89,3.57,2.84-4.82-5.63-1.07a9.15,9.15,0,0,0-2.21-.19c-3.84,0-8.11,2.47-8.11,7.63a7.79,7.79,0,0,0,3.79,6.51l6.82,4.25a4.42,4.42,0,0,1,2,3.71,4.82,4.82,0,0,1-4.9,5,4.39,4.39,0,0,1-2.31-.58l-3.11-4-2.84,5.21,5.86,1.06a9,9,0,0,0,2.11.2c6.39,0,9.13-4.44,9.13-9m-37.07-17.52h2.85c2.85,0,4.88,2.61,4.88,5.5a5.14,5.14,0,0,1-4.88,5.26h-2.85Zm13.66,23.69-6.27-11.43a7.43,7.43,0,0,0,5.31-6.76c0-4.92-5-7.82-9.85-7.82h-9.65l2.47,2.46v23.55l-2.47,2.46h9.27l-2.47-2.46V280.33h3.19l6.8,13.07h6.13Zm-26.87,2.46v-5.59L117,291.09h-7.82V279.32h5.59l2.47,2.45v-7.23L114.76,277h-5.59v-9.75H117l3.23,3.28v-5.6H102.37l2.46,2.46v23.55l-2.46,2.46ZM83.89,264.93H74.24l2.46,2.51,8,26h2.66l8.25-26,2.51-2.51H90.5l2.41,2.42-5.84,18.91-5.59-18.91Zm-23.94,0,2.42,2.46v23.55L60,293.4h9.22l-2.46-2.46V267.39l2.46-2.46Zm-25.57,26V270.63L49,293.43h1.86v-26l2.46-2.46H45.67l2.47,2.46v16.26L36.31,264.93H29.18l2.45,2.46v23.55l-2.45,2.46h7.66ZM3.25,285.78c0,4.92,4.53,8.25,9.4,8.25s9.41-3.33,9.41-8.25V267.39l2.46-2.46H16.85l2.46,2.46v18.39a5.86,5.86,0,0,1-11.72,0V267.39l2.46-2.46H.78l2.47,2.46Z"/><rect class="cls-1" x="3.92" y="128" width="5.39" height="39.89"/><path class="cls-1" d="M43.65,167.89H38.76V150a9.94,9.94,0,0,0-1.34-5.69q-1.34-1.92-4.89-1.92a8.53,8.53,0,0,0-2.38.39,6.33,6.33,0,0,0-2.5,1.47,8.56,8.56,0,0,0-2,3,12.36,12.36,0,0,0-.8,4.83v15.84H20v-29h4.61V143h.11c.26-.37.63-.84,1.11-1.42a9.72,9.72,0,0,1,1.81-1.64,11,11,0,0,1,2.53-1.33,9.22,9.22,0,0,1,3.33-.56,15.28,15.28,0,0,1,3.47.42,9.07,9.07,0,0,1,3.31,1.52A8.21,8.21,0,0,1,42.7,143a11.75,11.75,0,0,1,.95,5.08Z"/><path class="cls-1" d="M59,142.89v25H54.09v-25h-4v-4h4v-5a5.78,5.78,0,0,1,2-4.86,9,9,0,0,1,5.58-1.53l1.09,0c.35,0,.73,0,1.14.08V132l-1-.09c-.37,0-.71,0-1,0a2.73,2.73,0,0,0-2.25.8,4.15,4.15,0,0,0-.64,2.58v3.62h4.89v4Z"/><path class="cls-1" d="M68.64,153.33a19.67,19.67,0,0,1,.81-5.58,14.65,14.65,0,0,1,2.47-4.91,12.64,12.64,0,0,1,4.19-3.5,13,13,0,0,1,16.26,3.5,14.84,14.84,0,0,1,2.47,4.91,19.9,19.9,0,0,1,0,11.17,15,15,0,0,1-2.47,4.92,13.57,13.57,0,0,1-16.26,3.49,12.61,12.61,0,0,1-4.19-3.49,14.79,14.79,0,0,1-2.47-4.92A19.74,19.74,0,0,1,68.64,153.33Zm5.06,0A20.18,20.18,0,0,0,74,156.7a12.28,12.28,0,0,0,1.25,3.64,8.36,8.36,0,0,0,2.59,2.91,8.21,8.21,0,0,0,8.55,0A8.56,8.56,0,0,0,89,160.34a12.26,12.26,0,0,0,1.24-3.64,16.82,16.82,0,0,0,0-6.73A12.16,12.16,0,0,0,89,146.33a8.68,8.68,0,0,0-2.59-2.92,8.33,8.33,0,0,0-8.55,0,8.48,8.48,0,0,0-2.59,2.92A12.18,12.18,0,0,0,74,150,20.17,20.17,0,0,0,73.7,153.33Z"/><path class="cls-1" d="M108.87,167.89H104v-29h4.61v4.83h.11a13.5,13.5,0,0,1,3.42-4.11,7.39,7.39,0,0,1,4.74-1.56l.73,0,.55.14v5.05h-1.83a7.36,7.36,0,0,0-3.08.62,6.69,6.69,0,0,0-2.34,1.69,8.09,8.09,0,0,0-1.5,2.5,8.49,8.49,0,0,0-.52,3Z"/><path class="cls-1" d="M124.53,138.84h4.61V143h.11c.26-.37.62-.84,1.08-1.42a9.65,9.65,0,0,1,1.76-1.64,10.3,10.3,0,0,1,2.52-1.33A9.73,9.73,0,0,1,138,138a9,9,0,0,1,3.28.53,8.33,8.33,0,0,1,2.22,1.25,6.24,6.24,0,0,1,1.39,1.55l.83,1.39c.59-.66,1.19-1.29,1.78-1.89a9.75,9.75,0,0,1,1.89-1.49,9.54,9.54,0,0,1,2.27-1,10.93,10.93,0,0,1,2.93-.36,11.38,11.38,0,0,1,2.72.39,8,8,0,0,1,2.93,1.45,8.25,8.25,0,0,1,2.36,3,11,11,0,0,1,1,5v20.11h-4.9V149.11a9.33,9.33,0,0,0-1.12-4.86q-1.14-1.86-4.24-1.86a5.86,5.86,0,0,0-2.79.66,7,7,0,0,0-2.14,1.75,8.07,8.07,0,0,0-1.39,2.51,8.57,8.57,0,0,0-.5,2.86v17.72h-4.89V147.78a9.4,9.4,0,0,0-.19-1.86,4.94,4.94,0,0,0-.72-1.75,4.18,4.18,0,0,0-1.42-1.28,4.45,4.45,0,0,0-2.22-.5,8.59,8.59,0,0,0-2.39.39,6.33,6.33,0,0,0-2.5,1.47,8.41,8.41,0,0,0-2,3,12.35,12.35,0,0,0-.81,4.83v15.84h-4.89Z"/><path class="cls-1" d="M173,147.67a10.75,10.75,0,0,1,.95-4.45,8,8,0,0,1,2.44-3,9.94,9.94,0,0,1,3.75-1.7A20.85,20.85,0,0,1,185,138q.56,0,1.59.09a14.88,14.88,0,0,1,2.25.36,15.79,15.79,0,0,1,2.44.8,7.88,7.88,0,0,1,2.22,1.45,7,7,0,0,1,2.28,5.42v16.71c0,1.15.54,1.72,1.61,1.72l.75-.05.86-.16v3.55c-.41.11-.81.23-1.22.36a4.81,4.81,0,0,1-1.45.19,7.48,7.48,0,0,1-2.6-.38,3.84,3.84,0,0,1-1.53-1,3.53,3.53,0,0,1-.75-1.42,7.73,7.73,0,0,1-.28-1.63c-.48.51-1,1.05-1.64,1.6a10.67,10.67,0,0,1-2.2,1.53,13.08,13.08,0,0,1-2.91,1.14,14.25,14.25,0,0,1-3.75.44,10.55,10.55,0,0,1-3.67-.61,8.56,8.56,0,0,1-2.88-1.72,7.53,7.53,0,0,1-1.89-2.64,8.37,8.37,0,0,1-.67-3.41,13.53,13.53,0,0,1,.25-2.31,7.62,7.62,0,0,1,1.14-2.81,8.44,8.44,0,0,1,2.63-2.49,11.71,11.71,0,0,1,4.81-1.51l8.06-1,.88-.19.84-.5a2.4,2.4,0,0,0,.61-1,5.48,5.48,0,0,0,.22-1.75q0-4.72-6.83-4.72a8.58,8.58,0,0,0-3.36.55,5,5,0,0,0-1.94,1.42,5,5,0,0,0-1,1.83,12.89,12.89,0,0,0-.39,1.81Zm17.89,5.39-.72.44a6,6,0,0,1-1.33.42c-.6.13-1.37.27-2.31.44s-2.17.35-3.69.53a17.93,17.93,0,0,0-2,.36,8.65,8.65,0,0,0-2,.75,4.91,4.91,0,0,0-1.58,1.36,3.75,3.75,0,0,0-.64,2.25,5.21,5.21,0,0,0,1.25,3.72,5.3,5.3,0,0,0,4,1.34,10.47,10.47,0,0,0,3.34-.53,10,10,0,0,0,2.85-1.44,7.59,7.59,0,0,0,2-2.17,5,5,0,0,0,.78-2.7Z"/><path class="cls-1" d="M211.94,142.89v18.89a2.47,2.47,0,0,0,.3,1.31l.78.69,1,.25.89,0h1.72v3.84c-.89.07-1.65.16-2.3.25a11.88,11.88,0,0,1-1.37.14,8,8,0,0,1-3-.47,4.16,4.16,0,0,1-1.77-1.31,4.8,4.8,0,0,1-.89-2,11.3,11.3,0,0,1-.25-2.47V142.89h-4v-4h4v-8.12h4.89v8.12h4.66v4Z"/><path class="cls-1" d="M224.15,133.56V128H229v5.56ZM229,167.89h-4.89v-29H229Z"/><path class="cls-1" d="M237.27,153.33a20,20,0,0,1,.8-5.58,14.67,14.67,0,0,1,2.48-4.91,12.45,12.45,0,0,1,4.19-3.5,13,13,0,0,1,16.25,3.5,14.65,14.65,0,0,1,2.47,4.91,19.9,19.9,0,0,1,0,11.17,14.79,14.79,0,0,1-2.47,4.92,13.55,13.55,0,0,1-16.25,3.49,12.42,12.42,0,0,1-4.19-3.49,14.81,14.81,0,0,1-2.48-4.92A20.09,20.09,0,0,1,237.27,153.33Zm5.06,0a19.17,19.17,0,0,0,.33,3.37,12.26,12.26,0,0,0,1.24,3.64,8.56,8.56,0,0,0,2.59,2.91,8.21,8.21,0,0,0,8.55,0,8.56,8.56,0,0,0,2.59-2.91,12.57,12.57,0,0,0,1.25-3.64,17.32,17.32,0,0,0,0-6.73,12.47,12.47,0,0,0-1.25-3.64,8.68,8.68,0,0,0-2.59-2.92,8.33,8.33,0,0,0-8.55,0,8.68,8.68,0,0,0-2.59,2.92,12.16,12.16,0,0,0-1.24,3.64A19.15,19.15,0,0,0,242.33,153.33Z"/><path class="cls-1" d="M296,167.89H291.1V150a9.94,9.94,0,0,0-1.34-5.69c-.89-1.28-2.51-1.92-4.88-1.92a8.71,8.71,0,0,0-2.4.39,6.43,6.43,0,0,0-2.49,1.47,8.41,8.41,0,0,0-2,3,12.35,12.35,0,0,0-.81,4.83v15.84h-4.89v-29h4.61V143h.12c.25-.37.62-.84,1.1-1.42a10.4,10.4,0,0,1,1.81-1.64,11.09,11.09,0,0,1,2.52-1.33,9.31,9.31,0,0,1,3.34-.56,15.28,15.28,0,0,1,3.47.42,9.07,9.07,0,0,1,3.31,1.52A8.21,8.21,0,0,1,295,143a11.75,11.75,0,0,1,.95,5.08Z"/><path class="cls-1" d="M75.53,195.72a8.33,8.33,0,0,0-1-3.89,7.57,7.57,0,0,0-2.33-2.5A9.35,9.35,0,0,0,69,188a15.94,15.94,0,0,0-3.39-.38,19.31,19.31,0,0,0-2.86.24,9.65,9.65,0,0,0-3,1A6.74,6.74,0,0,0,57.47,191a6.32,6.32,0,0,0-.94,3.64,4.9,4.9,0,0,0,.42,2.15A4.62,4.62,0,0,0,58,198.19a5.47,5.47,0,0,0,1.5.91,11.15,11.15,0,0,0,1.72.56l11.39,2.61a16.4,16.4,0,0,1,3.61,1.28,9.72,9.72,0,0,1,2.86,2.13A9.87,9.87,0,0,1,81,208.77a11.31,11.31,0,0,1,.7,4.17,10.82,10.82,0,0,1-1.48,5.89,11.17,11.17,0,0,1-3.77,3.69,15.83,15.83,0,0,1-5.06,1.91,26.77,26.77,0,0,1-5.3.56,27.08,27.08,0,0,1-4.76-.36,17.49,17.49,0,0,1-3.38-.94,11.45,11.45,0,0,1-2.34-1.25A19.75,19.75,0,0,1,54,221.16a11.06,11.06,0,0,1-3.31-4.81A18.13,18.13,0,0,1,50,211H55a9.1,9.1,0,0,0,1,4.51,8.41,8.41,0,0,0,2.59,2.86,10,10,0,0,0,3.52,1.52,17.21,17.21,0,0,0,3.89.45,24.14,24.14,0,0,0,3.28-.25,12,12,0,0,0,3.42-1,7.41,7.41,0,0,0,2.66-2,5.28,5.28,0,0,0,1.08-3.47,7.1,7.1,0,0,0-.42-2.64,4.29,4.29,0,0,0-1.38-1.86,9.31,9.31,0,0,0-2.61-1.36q-1.65-.59-4.08-1.2l-8.17-1.88a19.46,19.46,0,0,1-2.45-.76,9.58,9.58,0,0,1-2.77-1.58,9.41,9.41,0,0,1-2.31-2.75,8.63,8.63,0,0,1-1-4.3,13.66,13.66,0,0,1,.78-4.56,10.68,10.68,0,0,1,2.44-3.94,12.16,12.16,0,0,1,4.28-2.78A16.62,16.62,0,0,1,65,183a20.87,20.87,0,0,1,8.28,1.36A12.14,12.14,0,0,1,78,187.69a10,10,0,0,1,2,4.17,25.54,25.54,0,0,1,.58,3.86Z"/><path class="cls-1" d="M108.75,204.66a7.82,7.82,0,0,0-2.11-4.58,6.55,6.55,0,0,0-4.78-1.64,6.9,6.9,0,0,0-3.8,1A7.57,7.57,0,0,0,95.59,202a10.81,10.81,0,0,0-1.34,3.52,19.82,19.82,0,0,0-.39,3.89,24.38,24.38,0,0,0,.31,3.86,11.56,11.56,0,0,0,1.16,3.62,7.19,7.19,0,0,0,2.42,2.66,7.29,7.29,0,0,0,4.06,1,6.27,6.27,0,0,0,4.41-1.78,9,9,0,0,0,2.53-5.11h4.72a15.48,15.48,0,0,1-.86,3.67,12.15,12.15,0,0,1-2,3.61,10.57,10.57,0,0,1-3.56,2.75,12,12,0,0,1-5.36,1.08,13.33,13.33,0,0,1-5.48-1.08,11.38,11.38,0,0,1-4.07-3,13.53,13.53,0,0,1-2.56-4.61,18.16,18.16,0,0,1-.89-5.84,23.4,23.4,0,0,1,.83-6.33A15.16,15.16,0,0,1,92,198.74a11.68,11.68,0,0,1,4.33-3.44,14.55,14.55,0,0,1,6.25-1.25,11.29,11.29,0,0,1,4.84.94,9.89,9.89,0,0,1,3.3,2.48,10.16,10.16,0,0,1,1.94,3.41,16,16,0,0,1,.81,3.78Z"/><path class="cls-1" d="M144.86,223.94H140v-19a13.06,13.06,0,0,0-.25-2.7,4.91,4.91,0,0,0-.89-2,4.16,4.16,0,0,0-1.77-1.31,7.46,7.46,0,0,0-2.87-.47,9.23,9.23,0,0,0-2.94.47,6.88,6.88,0,0,0-2.62,1.61,8.1,8.1,0,0,0-1.85,3,13,13,0,0,0-.7,4.58v15.84h-4.89V184.05h4.89v14.72h.12c.33-.44.74-.94,1.25-1.5a9.64,9.64,0,0,1,1.77-1.55,9.35,9.35,0,0,1,2.36-1.2,9.48,9.48,0,0,1,3.12-.47,15.42,15.42,0,0,1,3.47.42,8.87,8.87,0,0,1,3.3,1.52,8,8,0,0,1,2.44,3.08,11.82,11.82,0,0,1,1,5.09Z"/><path class="cls-1" d="M152.86,209.38a20,20,0,0,1,.79-5.58,15.16,15.16,0,0,1,2.46-4.92,13.57,13.57,0,0,1,16.24-3.5,12.92,12.92,0,0,1,4.2,3.5A14.79,14.79,0,0,1,179,203.8,19.9,19.9,0,0,1,179,215a14.79,14.79,0,0,1-2.47,4.92,13.55,13.55,0,0,1-16.25,3.49,12.63,12.63,0,0,1-4.19-3.49,15.16,15.16,0,0,1-2.46-4.92A20.08,20.08,0,0,1,152.86,209.38Zm5,0a20,20,0,0,0,.33,3.36,12.22,12.22,0,0,0,1.24,3.65,8.65,8.65,0,0,0,2.59,2.91,8.27,8.27,0,0,0,8.55,0,8.41,8.41,0,0,0,2.58-2.91,12.26,12.26,0,0,0,1.26-3.65,17.27,17.27,0,0,0,0-6.72,12.11,12.11,0,0,0-1.26-3.64,8.36,8.36,0,0,0-2.58-2.92,8.27,8.27,0,0,0-8.55,0,8.59,8.59,0,0,0-2.59,2.92,12.07,12.07,0,0,0-1.24,3.64A20.17,20.17,0,0,0,157.89,209.38Z"/><path class="cls-1" d="M186.33,209.38a19.66,19.66,0,0,1,.8-5.58,15,15,0,0,1,2.47-4.92,13,13,0,0,1,20.44,0,14.81,14.81,0,0,1,2.48,4.92,19.9,19.9,0,0,1,0,11.17,14.81,14.81,0,0,1-2.48,4.92,13,13,0,0,1-20.44,0,15,15,0,0,1-2.47-4.92A19.73,19.73,0,0,1,186.33,209.38Zm5,0a19.08,19.08,0,0,0,.34,3.36,12,12,0,0,0,1.24,3.65,8.55,8.55,0,0,0,2.59,2.91,8.27,8.27,0,0,0,8.55,0,8.52,8.52,0,0,0,2.58-2.91,12,12,0,0,0,1.25-3.65,17.27,17.27,0,0,0,0-6.72,11.82,11.82,0,0,0-1.25-3.64,8.46,8.46,0,0,0-2.58-2.92,8.27,8.27,0,0,0-8.55,0,8.49,8.49,0,0,0-2.59,2.92,11.8,11.8,0,0,0-1.24,3.64A19.26,19.26,0,0,0,191.38,209.38Z"/><rect class="cls-1" x="221.55" y="184.05" width="4.89" height="39.88"/><path class="cls-2" d="M144.77,24.87c.51-2.26,10.17-2.39,9.57.44-2,9.33-6.36,18.42-9.6,26s-4.09,14.1-2.36,17.9a14.41,14.41,0,0,0,4.53,6.11c2.56,1.89,6.61,3.38,13.38,3.38,24.41,0,30.26-20.26,30.26-29.3,0-23.07-15.64-29.95-22.91-34.2-2.19-2.37.77-8.06,2.84-8.25,5.21.06,29.78,12.53,29.78,43,0,19.22-16.83,39.34-39.25,39.34-17.45,0-26-8.69-28.83-17.86C129.89,64,133,53.91,137,45.12c2.06-4.42,2.44-5.56,3.81-8.82a91.77,91.77,0,0,0,3.92-11.43"/><path class="cls-2" d="M160.41,14.73c-2.47,1.58-14.41,1.3-17.87.21-2.56-.8-1.34-10.74.36-12.2,2.2-2.25,16.73-2.36,18.71.76,1.17,1.82,1,9.82-1.2,11.23"/><path class="cls-2" d="M102.08,58.9c.33,53,71.33,56.93,88.76,27.73,1.06-2.33,10.09-2.74,11,.1C170.69,136.94,93.08,115.42,93.08,58.9c0-26.28,15.15-47,39-52.14,2.49-.56,4.39,6.91,2.19,8C115.92,19.06,102,39.24,102.08,58.9"/><polyline class="cls-1" points="3.73 243.97 296.13 243.97 296.13 241.91 3.73 241.91"/><polygon class="cls-1" points="153.95 337.02 153.95 316.7 168.48 339.5 170.33 339.5 170.33 313.47 172.78 311.01 165.19 311.01 167.64 313.47 167.64 329.73 155.87 311.01 148.75 311.01 151.22 313.47 151.22 337.02 148.75 339.48 156.4 339.48 153.95 337.02"/><polygon class="cls-1" points="265.35 337.02 265.35 316.7 279.95 339.5 281.8 339.5 281.8 313.47 284.26 311.01 276.65 311.01 279.11 313.47 279.11 329.73 267.28 311.01 260.15 311.01 262.61 313.47 262.61 337.02 260.15 339.48 267.82 339.48 265.35 337.02"/><polygon class="cls-1" points="218.66 337.02 218.66 313.32 223.44 313.32 226.67 316.61 226.67 311.01 206.26 311.01 206.26 316.61 209.49 313.32 214.31 313.32 214.31 337.02 211.85 339.48 221.08 339.48 218.66 337.02"/><path class="cls-1" d="M236.1,325.24c0-5.64,1.45-12.49,6.9-12.49s6.85,6.85,6.85,12.49-1.45,12.5-6.85,12.5-6.9-6.85-6.9-12.5m-5.36,0c0,7.43,4.73,14.86,12.26,14.86s12.21-7.43,12.21-14.86-4.73-14.86-12.21-14.86-12.26,7.44-12.26,14.86"/></svg>