<svg id="Layer_1" data-name="Layer 1" xmlns="http://www.w3.org/2000/svg" viewBox="0 0 500 93.14"><defs><style>.cls-1,.cls-2,.cls-3{fill:#020202;}.cls-2{fill-rule:evenodd;}.cls-3{stroke:#020202;stroke-width:0.5px;}.cls-4{fill:none;}</style></defs><title>iSchoolPrimary_RGB_Black</title><path class="cls-1" d="M114.23,41.83h-4.16V11h4.16Z" transform="translate(-0.23 -0.16)"/><path class="cls-1" d="M140.76,41.83H137V28a7.71,7.71,0,0,0-1-4.4c-.68-1-1.94-1.48-3.77-1.48a6.69,6.69,0,0,0-1.85.3,4.77,4.77,0,0,0-1.93,1.14,6.54,6.54,0,0,0-1.52,2.3,9.48,9.48,0,0,0-.63,3.73V41.83h-3.78V19.37H126v3.18h.08c.2-.29.49-.65.86-1.09a7.25,7.25,0,0,1,1.4-1.27,8.55,8.55,0,0,1,2-1,7,7,0,0,1,2.58-.43,12.23,12.23,0,0,1,2.68.32,6.91,6.91,0,0,1,2.55,1.18A6.21,6.21,0,0,1,140,22.61a9.1,9.1,0,0,1,.73,3.93Z" transform="translate(-0.23 -0.16)"/><path class="cls-1" d="M152.61,22.51V41.83h-3.78V22.51h-3.09V19.37h3.09V15.51a4.45,4.45,0,0,1,1.53-3.76,6.93,6.93,0,0,1,4.31-1.18q.44,0,.84,0l.88.06v3.39c-.23,0-.49-.05-.77-.06l-.78,0a2.06,2.06,0,0,0-1.73.63,3.19,3.19,0,0,0-.5,2v2.79h3.78v3.14Z" transform="translate(-0.23 -0.16)"/><path class="cls-1" d="M160.08,30.58a15.5,15.5,0,0,1,.62-4.32,11.47,11.47,0,0,1,1.91-3.79,10,10,0,0,1,15.8,0,11.28,11.28,0,0,1,1.91,3.79,15.33,15.33,0,0,1,0,8.63,11.24,11.24,0,0,1-1.91,3.8,9.83,9.83,0,0,1-3.24,2.71,11.06,11.06,0,0,1-9.32,0,9.83,9.83,0,0,1-3.24-2.71,11.42,11.42,0,0,1-1.91-3.8A15.44,15.44,0,0,1,160.08,30.58Zm3.91,0a15.59,15.59,0,0,0,.25,2.6,9.76,9.76,0,0,0,1,2.81,6.41,6.41,0,0,0,2,2.25,6.34,6.34,0,0,0,6.61,0,6.39,6.39,0,0,0,2-2.25,9.2,9.2,0,0,0,1-2.81,15.71,15.71,0,0,0,.26-2.6,15.71,15.71,0,0,0-.26-2.6,9.11,9.11,0,0,0-1-2.81,6.39,6.39,0,0,0-2-2.25,6.34,6.34,0,0,0-6.61,0,6.41,6.41,0,0,0-2,2.25,9.66,9.66,0,0,0-1,2.81A15.59,15.59,0,0,0,164,30.58Z" transform="translate(-0.23 -0.16)"/><path class="cls-1" d="M191.16,41.83h-3.78V19.37H191v3.74H191a10.78,10.78,0,0,1,2.64-3.18,5.76,5.76,0,0,1,3.67-1.2l.56,0a1.7,1.7,0,0,1,.43.11v3.91h-1.42a5.68,5.68,0,0,0-2.38.47,5.23,5.23,0,0,0-1.8,1.31,5.88,5.88,0,0,0-1.16,1.93,6.55,6.55,0,0,0-.41,2.3Z" transform="translate(-0.23 -0.16)"/><path class="cls-1" d="M203.27,19.37h3.56v3.18h.09c.2-.29.48-.65.83-1.09a7,7,0,0,1,1.36-1.27,7.78,7.78,0,0,1,1.95-1,7.38,7.38,0,0,1,2.64-.43,6.91,6.91,0,0,1,2.53.41,6.5,6.5,0,0,1,1.72,1A4.59,4.59,0,0,1,219,21.31l.65,1.07c.45-.51.91-1,1.37-1.46a8.26,8.26,0,0,1,1.46-1.16,7,7,0,0,1,1.76-.75,8.27,8.27,0,0,1,2.28-.28,8.81,8.81,0,0,1,2.1.3,6.1,6.1,0,0,1,2.27,1.12,6.48,6.48,0,0,1,1.83,2.29,8.54,8.54,0,0,1,.75,3.85V41.83h-3.78V27.32a7.1,7.1,0,0,0-.88-3.76,3.52,3.52,0,0,0-3.28-1.44,4.46,4.46,0,0,0-2.17.52A5.38,5.38,0,0,0,221.73,24a6.38,6.38,0,0,0-1.08,1.93,6.8,6.8,0,0,0-.38,2.21v13.7h-3.78V26.29a7.34,7.34,0,0,0-.15-1.44,3.8,3.8,0,0,0-.56-1.36,3.23,3.23,0,0,0-1.09-1,3.45,3.45,0,0,0-1.72-.39,6.75,6.75,0,0,0-1.85.3,4.84,4.84,0,0,0-1.93,1.14,6.54,6.54,0,0,0-1.52,2.3,9.49,9.49,0,0,0-.62,3.73V41.83h-3.78Z" transform="translate(-0.23 -0.16)"/><path class="cls-1" d="M240.74,26.2a8.36,8.36,0,0,1,.73-3.43,6.25,6.25,0,0,1,1.89-2.32,7.8,7.8,0,0,1,2.9-1.31,16.16,16.16,0,0,1,3.76-.41c.28,0,.69,0,1.22.06a14.17,14.17,0,0,1,1.74.28,11.64,11.64,0,0,1,1.89.63,6,6,0,0,1,1.71,1.11A5.47,5.47,0,0,1,258.35,25V37.92c0,.89.41,1.33,1.24,1.33a4.14,4.14,0,0,0,.58,0,6.54,6.54,0,0,0,.67-.13v2.75c-.32.08-.63.17-.95.28a3.75,3.75,0,0,1-1.12.15,5.37,5.37,0,0,1-2-.31,2.73,2.73,0,0,1-1.18-.77,2.62,2.62,0,0,1-.58-1.09,6.14,6.14,0,0,1-.22-1.27c-.37.4-.79.82-1.26,1.25a8.93,8.93,0,0,1-1.7,1.18,10.45,10.45,0,0,1-2.25.88,11.54,11.54,0,0,1-2.9.34,8.33,8.33,0,0,1-2.84-.47,6.92,6.92,0,0,1-2.23-1.33,6.06,6.06,0,0,1-1.46-2,6.61,6.61,0,0,1-.51-2.64,10.49,10.49,0,0,1,.19-1.78A5.82,5.82,0,0,1,240.7,32a6.45,6.45,0,0,1,2-1.93A9,9,0,0,1,246.45,29l6.23-.77a4,4,0,0,0,.68-.16,1.74,1.74,0,0,0,.65-.38,1.9,1.9,0,0,0,.47-.77,4.13,4.13,0,0,0,.17-1.36q0-3.65-5.28-3.64a6.6,6.6,0,0,0-2.59.42,3.92,3.92,0,0,0-1.51,1.1,3.82,3.82,0,0,0-.75,1.42,10.62,10.62,0,0,0-.3,1.39Zm13.83,4.16a3.42,3.42,0,0,1-.56.35,4.89,4.89,0,0,1-1,.32c-.46.1-1,.21-1.78.34s-1.68.27-2.86.41c-.46.06-1,.15-1.52.28a6.41,6.41,0,0,0-1.57.58,3.63,3.63,0,0,0-1.22,1,2.85,2.85,0,0,0-.5,1.74,4,4,0,0,0,1,2.87,4.08,4.08,0,0,0,3.11,1,8.29,8.29,0,0,0,2.58-.41,7.92,7.92,0,0,0,2.21-1.12A6.22,6.22,0,0,0,254,36.14a3.89,3.89,0,0,0,.6-2.08Z" transform="translate(-0.23 -0.16)"/><path class="cls-1" d="M270.84,22.51V37.1a1.91,1.91,0,0,0,.23,1,1.44,1.44,0,0,0,.61.54,2,2,0,0,0,.75.19c.25,0,.48,0,.68,0h1.34v3c-.69.05-1.29.12-1.79.19a9.24,9.24,0,0,1-1.05.11,6.18,6.18,0,0,1-2.3-.37,3.26,3.26,0,0,1-1.37-1,3.79,3.79,0,0,1-.69-1.52,8.83,8.83,0,0,1-.19-1.91V22.51H264V19.37h3.05V13.11h3.78v6.26h3.61v3.14Z" transform="translate(-0.23 -0.16)"/><path class="cls-1" d="M280.28,15.3V11h3.78v4.3Zm3.78,26.53h-3.78V19.37h3.78Z" transform="translate(-0.23 -0.16)"/><path class="cls-1" d="M290.41,30.58a15.16,15.16,0,0,1,.63-4.32A11.28,11.28,0,0,1,293,22.47a9.63,9.63,0,0,1,3.24-2.71,10,10,0,0,1,12.55,2.71,11.49,11.49,0,0,1,1.92,3.79,15.33,15.33,0,0,1,0,8.63,11.44,11.44,0,0,1-1.92,3.8,10.47,10.47,0,0,1-12.55,2.71A9.63,9.63,0,0,1,293,38.69a11.24,11.24,0,0,1-1.91-3.8A15.09,15.09,0,0,1,290.41,30.58Zm3.91,0a15.71,15.71,0,0,0,.26,2.6,9.45,9.45,0,0,0,1,2.81,6.51,6.51,0,0,0,2,2.25,6.34,6.34,0,0,0,6.61,0,6.29,6.29,0,0,0,2-2.25,9.2,9.2,0,0,0,1-2.81,15.71,15.71,0,0,0,.26-2.6,15.71,15.71,0,0,0-.26-2.6,9.11,9.11,0,0,0-1-2.81,6.29,6.29,0,0,0-2-2.25,6.34,6.34,0,0,0-6.61,0,6.51,6.51,0,0,0-2,2.25,9.35,9.35,0,0,0-1,2.81A15.71,15.71,0,0,0,294.32,30.58Z" transform="translate(-0.23 -0.16)"/><path class="cls-1" d="M335.79,41.83H332V28a7.71,7.71,0,0,0-1-4.4c-.69-1-2-1.48-3.78-1.48a6.63,6.63,0,0,0-1.84.3,4.77,4.77,0,0,0-1.93,1.14,6.55,6.55,0,0,0-1.53,2.3,9.68,9.68,0,0,0-.62,3.73V41.83H317.5V19.37h3.56v3.18h.09c.2-.29.49-.65.86-1.09a7.25,7.25,0,0,1,1.4-1.27,8.15,8.15,0,0,1,1.95-1,7,7,0,0,1,2.57-.43,12.24,12.24,0,0,1,2.69.32,7,7,0,0,1,2.55,1.18,6.41,6.41,0,0,1,1.89,2.38,9.1,9.1,0,0,1,.73,3.93Z" transform="translate(-0.23 -0.16)"/><path class="cls-1" d="M376.44,20a6.46,6.46,0,0,0-.79-3,6,6,0,0,0-1.8-1.93,7.31,7.31,0,0,0-2.43-1,11.9,11.9,0,0,0-2.62-.3,15.46,15.46,0,0,0-2.21.19,7.2,7.2,0,0,0-2.3.78,5.18,5.18,0,0,0-1.8,1.63,4.82,4.82,0,0,0-.73,2.81,3.82,3.82,0,0,0,.32,1.65,3.55,3.55,0,0,0,.84,1.12,3.94,3.94,0,0,0,1.16.71,11.48,11.48,0,0,0,1.33.43l8.8,2a12.46,12.46,0,0,1,2.79,1,7.34,7.34,0,0,1,3.67,4,8.76,8.76,0,0,1,.54,3.22,8.37,8.37,0,0,1-1.14,4.55,8.55,8.55,0,0,1-2.92,2.85,12.37,12.37,0,0,1-3.91,1.48,21.62,21.62,0,0,1-7.77.15,12.8,12.8,0,0,1-2.61-.73,9.16,9.16,0,0,1-1.81-1,15.69,15.69,0,0,1-1.22-1A8.6,8.6,0,0,1,357.27,36a14.31,14.31,0,0,1-.57-4.1h3.9a6.93,6.93,0,0,0,.78,3.47,6.47,6.47,0,0,0,2,2.22,7.85,7.85,0,0,0,2.73,1.17,13.35,13.35,0,0,0,3,.35,20.3,20.3,0,0,0,2.53-.19,9.22,9.22,0,0,0,2.65-.76,5.78,5.78,0,0,0,2.06-1.56,4.12,4.12,0,0,0,.83-2.69,5.51,5.51,0,0,0-.32-2,3.33,3.33,0,0,0-1.07-1.44,6.79,6.79,0,0,0-2-1.05c-.85-.31-1.9-.61-3.15-.93L364.29,27a13.51,13.51,0,0,1-1.88-.58,7.75,7.75,0,0,1-2.15-1.22A7.12,7.12,0,0,1,358.48,23a6.6,6.6,0,0,1-.75-3.32,10.59,10.59,0,0,1,.6-3.52,8.33,8.33,0,0,1,1.88-3A9.68,9.68,0,0,1,363.52,11a12.91,12.91,0,0,1,4.81-.81,16.07,16.07,0,0,1,6.4,1.05,9.3,9.3,0,0,1,3.58,2.58A7.66,7.66,0,0,1,379.9,17a21.67,21.67,0,0,1,.45,3Z" transform="translate(-0.23 -0.16)"/><path class="cls-1" d="M402.12,26.93a6.05,6.05,0,0,0-1.64-3.54,5,5,0,0,0-3.69-1.27,5.4,5.4,0,0,0-2.94.75,5.84,5.84,0,0,0-1.91,2,8.39,8.39,0,0,0-1,2.72,15.44,15.44,0,0,0-.3,3,19.09,19.09,0,0,0,.24,3,8.47,8.47,0,0,0,.9,2.79,5.35,5.35,0,0,0,1.86,2.06,5.62,5.62,0,0,0,3.14.8,4.9,4.9,0,0,0,3.41-1.37,7,7,0,0,0,2-4h3.64a11.46,11.46,0,0,1-.66,2.84,9.49,9.49,0,0,1-1.59,2.79,8.12,8.12,0,0,1-2.75,2.12,9.26,9.26,0,0,1-4.14.84,10.21,10.21,0,0,1-4.23-.84,8.87,8.87,0,0,1-3.15-2.34,10.54,10.54,0,0,1-2-3.56,14.13,14.13,0,0,1-.68-4.51,17.9,17.9,0,0,1,.64-4.89,11.6,11.6,0,0,1,1.95-4,9,9,0,0,1,3.35-2.66,11.1,11.1,0,0,1,4.83-1,8.62,8.62,0,0,1,3.73.73,7.45,7.45,0,0,1,2.56,1.91,8.06,8.06,0,0,1,1.5,2.64,12.19,12.19,0,0,1,.62,2.92Z" transform="translate(-0.23 -0.16)"/><path class="cls-1" d="M430,41.83h-3.78V27.14a10.16,10.16,0,0,0-.19-2.08,3.88,3.88,0,0,0-.69-1.57,3.32,3.32,0,0,0-1.37-1,5.72,5.72,0,0,0-2.22-.37,7.06,7.06,0,0,0-2.27.37,5.3,5.3,0,0,0-2,1.24,6.14,6.14,0,0,0-1.43,2.32,10.14,10.14,0,0,0-.54,3.54V41.83h-3.78V11h3.78V22.38h.09a14.89,14.89,0,0,1,1-1.16,7.65,7.65,0,0,1,3.2-2.12,7,7,0,0,1,2.4-.37,12.24,12.24,0,0,1,2.69.32,6.91,6.91,0,0,1,2.55,1.18,6.41,6.41,0,0,1,1.89,2.38,9.25,9.25,0,0,1,.73,3.93Z" transform="translate(-0.23 -0.16)"/><path class="cls-1" d="M436.2,30.58a15.5,15.5,0,0,1,.62-4.32,11.47,11.47,0,0,1,1.91-3.79,10,10,0,0,1,15.8,0,11.28,11.28,0,0,1,1.91,3.79,15.33,15.33,0,0,1,0,8.63,11.24,11.24,0,0,1-1.91,3.8,9.83,9.83,0,0,1-3.24,2.71,11,11,0,0,1-9.31,0,9.77,9.77,0,0,1-3.25-2.71,11.42,11.42,0,0,1-1.91-3.8A15.44,15.44,0,0,1,436.2,30.58Zm3.91,0a14.7,14.7,0,0,0,.26,2.6,9.45,9.45,0,0,0,1,2.81,6.41,6.41,0,0,0,2,2.25,6.34,6.34,0,0,0,6.61,0,6.39,6.39,0,0,0,2-2.25,9.2,9.2,0,0,0,1-2.81,15.71,15.71,0,0,0,.26-2.6,15.71,15.71,0,0,0-.26-2.6,9.11,9.11,0,0,0-1-2.81,6.39,6.39,0,0,0-2-2.25,6.34,6.34,0,0,0-6.61,0,6.41,6.41,0,0,0-2,2.25,9.35,9.35,0,0,0-1,2.81A14.7,14.7,0,0,0,440.11,30.58Z" transform="translate(-0.23 -0.16)"/><path class="cls-1" d="M462.09,30.58a15.14,15.14,0,0,1,.62-4.32,11.28,11.28,0,0,1,1.91-3.79,10,10,0,0,1,15.8,0,11.47,11.47,0,0,1,1.91,3.79,15.33,15.33,0,0,1,0,8.63,11.42,11.42,0,0,1-1.91,3.8,9.77,9.77,0,0,1-3.25,2.71,10,10,0,0,1-12.55-2.71,11.24,11.24,0,0,1-1.91-3.8A15.08,15.08,0,0,1,462.09,30.58Zm3.91,0a15.59,15.59,0,0,0,.25,2.6,9.2,9.2,0,0,0,1,2.81,6.39,6.39,0,0,0,2,2.25,6.34,6.34,0,0,0,6.61,0,6.41,6.41,0,0,0,2-2.25,9.45,9.45,0,0,0,1-2.81,14.7,14.7,0,0,0,.26-2.6,14.7,14.7,0,0,0-.26-2.6,9.35,9.35,0,0,0-1-2.81,6.41,6.41,0,0,0-2-2.25,6.34,6.34,0,0,0-6.61,0,6.39,6.39,0,0,0-2,2.25,9.11,9.11,0,0,0-1,2.81A15.59,15.59,0,0,0,466,30.58Z" transform="translate(-0.23 -0.16)"/><path class="cls-1" d="M493.08,41.83H489.3V11h3.78Z" transform="translate(-0.23 -0.16)"/><path class="cls-2" d="M40.91,23.38c.36-1.58,7.09-1.67,6.67.3-1.38,6.49-4.43,12.81-6.68,18.08s-2.85,9.81-1.65,12.46a10,10,0,0,0,3.16,4.24c1.77,1.32,4.6,2.35,9.35,2.35,17,0,21.05-14.08,21.05-20.37,0-16-10.88-20.83-15.94-23.79-1.52-1.65.54-5.6,2-5.74,3.62.05,20.71,8.72,20.71,29.9,0,13.36-11.71,27.36-27.3,27.36-12.18,0-18.14-6.05-20.1-12.43-1.6-5.19.53-12.17,3.38-18.28,1.43-3.07,1.69-3.87,2.65-6.13a63.85,63.85,0,0,0,2.72-7.95" transform="translate(-0.23 -0.16)"/><path class="cls-2" d="M51.84,16.32c-1.72,1.1-10.07.91-12.48.15-1.78-.56-.93-7.47.26-8.49,1.52-1.56,11.68-1.64,13.06.53.81,1.27.7,6.83-.84,7.81" transform="translate(-0.23 -0.16)"/><path class="cls-2" d="M11.23,47C11.45,83.91,60.88,86.64,73,66.33c.74-1.62,7-1.91,7.63.07C59,101.33,5,86.35,5,47c0-18.27,10.54-32.7,27.1-36.26,1.73-.39,3,4.81,1.52,5.53C20.85,19.34,11.14,33.37,11.23,47" transform="translate(-0.23 -0.16)"/><line class="cls-3" x1="109.65" y1="53.14" x2="493.82" y2="53.14"/><line class="cls-3" x1="94.82" y1="7.9" x2="94.82" y2="87.59"/><polygon class="cls-1" points="482.85 80.6 482.85 67.29 492.42 82.24 493.64 82.24 493.64 65.17 495.25 63.55 490.25 63.55 491.87 65.17 491.87 75.83 484.12 63.55 479.44 63.55 481.05 65.17 481.05 80.6 479.44 82.22 484.47 82.22 482.85 80.6"/><path class="cls-1" d="M463.9,73.05c0-3.7,1-8.19,4.53-8.19s4.49,4.49,4.49,8.19-.95,8.19-4.49,8.19-4.53-4.49-4.53-8.19m-3.51,0c0,4.87,3.1,9.74,8,9.74s8-4.87,8-9.74-3.1-9.75-8-9.75-8,4.88-8,9.75" transform="translate(-0.23 -0.16)"/><polygon class="cls-1" points="409.75 80.6 409.75 67.29 419.32 82.24 420.54 82.24 420.54 65.17 422.16 63.55 417.16 63.55 418.77 65.17 418.77 75.83 411.02 63.55 406.34 63.55 407.95 65.17 407.95 80.6 406.34 82.22 411.37 82.22 409.75 80.6"/><polygon class="cls-1" points="452.24 80.6 452.24 65.07 455.37 65.07 457.49 67.22 457.49 63.55 444.11 63.55 444.11 67.22 446.23 65.07 449.39 65.07 449.39 80.6 447.78 82.22 453.82 82.22 452.24 80.6"/><path class="cls-1" d="M436,72.29l1.62,1.61v6.29a3.65,3.65,0,0,1-2.63.92c-3.57,0-5.7-4.21-5.7-8.06S431.46,65,435,65a2.67,2.67,0,0,1,2.12.89l2.56,2.56V64.54A9.57,9.57,0,1,0,435,82.63c3.54,0,4.2-.66,5.47-1.36V73.9l1.62-1.61Zm-40.67-8.57,1.57,1.61V80.76l-1.57,1.62h6l-1.61-1.62V65.33l1.61-1.61Zm-16,9.42h7.05v7.62l-1.61,1.62h6l-1.58-1.62V65.33l1.58-1.61h-6l1.61,1.61v6.29h-7.05V65.33L381,63.72H374.9l1.61,1.61V80.76l-1.61,1.62H381l-1.61-1.62Zm-8.47,3.58a3.8,3.8,0,0,0-1.81-3.48l-4.49-2.79a3.53,3.53,0,0,1-1.93-2.91A2.71,2.71,0,0,1,365.51,65a2,2,0,0,1,1.23.29l1.9,2.34,1.87-3.17-3.7-.69a5.72,5.72,0,0,0-1.46-.13c-2.53,0-5.35,1.61-5.35,5a5.14,5.14,0,0,0,2.5,4.27L367,75.64a2.89,2.89,0,0,1,1.3,2.44,3.17,3.17,0,0,1-3.23,3.29,2.88,2.88,0,0,1-1.51-.38l-2.06-2.6-1.86,3.42,3.85.69a6,6,0,0,0,1.4.13,5.59,5.59,0,0,0,6-5.91M348,68.11l2.51,7.47h-5.07ZM343.68,80.8l1.24-3.71H351l1.23,3.71-1.58,1.58H357l-1.65-1.64-5.78-17h-1.74l-5.95,17-1.64,1.64h5Zm-20.1,1.58,3.86-12.12,3.76,12.12h1.74l5.41-17L340,63.72h-5l1.58,1.58-3.83,12.4-3.67-12.4,1.58-1.58h-6.32l1.61,1.64.63,2.06L323.36,77.7l-3.67-12.4,1.58-1.58H315l1.61,1.64,5.28,17ZM297,71.19c.79-5,1.36-6.15,2.1-6.15A2.88,2.88,0,0,1,301,66a.68.68,0,0,0,.94,0,1.75,1.75,0,0,0,.66-1.21c0-.63-.71-1.16-1.71-1.16a6.29,6.29,0,0,0-4.41,2.24,10.68,10.68,0,0,0-2.18,5.33h-1.61L292,72l.08.26h2.08c-.35,2.29-.63,4.34-1.11,7.59-.68,4.63-1.15,6.36-1.55,6.76a.9.9,0,0,1-.65.31,4.13,4.13,0,0,1-1.24-.47.73.73,0,0,0-.79.18,1.78,1.78,0,0,0-.49,1.16c0,.61.65.84,1.12.84a4.84,4.84,0,0,0,3-1.71c1.13-1.21,2.39-3.76,3.37-8.85.36-1.87.63-3.5,1-5.81l2.66-.26.61-.82Zm-14,.5c1.05,0,1.73,1,1.73,2.89.06,3.47-1.52,6.44-2.52,6.78a2.16,2.16,0,0,1-.63.11c-1.21,0-1.89-1.29-1.89-3.31,0-4,1.7-6,2.52-6.31a1.86,1.86,0,0,1,.79-.16m.89-1.13a6.88,6.88,0,0,0-3.28,1,7.93,7.93,0,0,0-3.76,7c0,1.91.89,4.09,3.7,4.09a7.13,7.13,0,0,0,4.24-1.78,8.91,8.91,0,0,0,2.78-6.47,3.5,3.5,0,0,0-3.68-3.78m-32-5.2,4.74,8.35v7.05L255,82.38h6l-1.58-1.62v-7L264,65.33l1.62-1.61h-5l1.58,1.58L258.64,72,255,65.3l1.58-1.58h-6.33Zm-9.65,15.4V65.24h3.13l2.12,2.15V63.72H234.06v3.67l2.12-2.15h3.16V80.76l-1.61,1.62h6Zm-18.41-17,1.58,1.61V80.76l-1.58,1.62h6l-1.61-1.62V65.33l1.61-1.61Zm-4.3,13a3.8,3.8,0,0,0-1.8-3.48l-4.5-2.79a3.53,3.53,0,0,1-1.93-2.91A2.71,2.71,0,0,1,214.1,65a2,2,0,0,1,1.23.29l1.9,2.34,1.87-3.17-3.7-.69a5.62,5.62,0,0,0-1.46-.13c-2.53,0-5.34,1.61-5.34,5a5.11,5.11,0,0,0,2.5,4.27l4.49,2.78a2.92,2.92,0,0,1,1.3,2.44,3.17,3.17,0,0,1-3.23,3.29,2.91,2.91,0,0,1-1.52-.38l-2-2.6-1.87,3.42,3.86.69a5.81,5.81,0,0,0,1.39.13,5.59,5.59,0,0,0,6-5.91M195.12,65.24H197a3.54,3.54,0,0,1,0,7.05h-1.87Zm9,15.52L200,73.27a4.86,4.86,0,0,0,3.48-4.43c0-3.23-3.29-5.12-6.45-5.12h-6.33l1.62,1.61V80.76l-1.62,1.62h6.08l-1.62-1.62v-7h2.09l4.46,8.58h4Zm-17.62,1.62V78.71l-2.12,2.15h-5.13V73.14h3.67l1.62,1.62V70l-1.62,1.61h-3.67V65.24h5.13l2.12,2.15V63.72h-11.7l1.61,1.61V80.76l-1.61,1.62ZM162.64,63.72h-6.32l1.61,1.64,5.28,17H165l5.41-17L172,63.72h-5l1.59,1.58-3.83,12.4-3.67-12.4Zm-15.69,0,1.58,1.61V80.76L147,82.38h6l-1.61-1.62V65.33L153,63.72Zm-16.76,17V67.45l9.57,14.94H141V65.33l1.61-1.61h-5l1.61,1.61V76l-7.75-12.27h-4.68l1.62,1.61V80.76l-1.62,1.62h5Zm-20.41-3.38c0,3.23,3,5.41,6.16,5.41s6.17-2.18,6.17-5.41v-12l1.62-1.61h-5l1.61,1.61v12a3.84,3.84,0,0,1-7.68,0v-12l1.61-1.61h-6.08l1.62,1.61Z" transform="translate(-0.23 -0.16)"/><rect class="cls-4" width="500" height="93.14"/></svg>