<svg id="Layer_1" data-name="Layer 1" xmlns="http://www.w3.org/2000/svg" viewBox="0 0 500 518.33"><defs><style>.cls-1{fill:#917b4c;fill-rule:evenodd;}.cls-2{fill:none;}</style></defs><title>iSchoolSymbolOnly_RGB_MetallicGold</title><path class="cls-1" d="M238.35,110.86c2.27-10.17,45.62-10.74,42.93,1.94-8.85,41.88-28.51,82.61-43.06,116.61-14.68,34.33-18.35,63.28-10.58,80.32,3.88,8.46,8.89,18.92,20.32,27.39s29.64,15.14,60,15.14c109.48,0,135.72-90.85,135.72-131.38,0-103.5-70.19-134.34-102.77-153.41-9.81-10.65,3.46-36.13,12.72-37,23.4.29,133.6,56.22,133.6,192.81,0,86.18-75.53,176.44-176.07,176.44-78.24,0-116.63-39-129.3-80.13-10.28-33.46,3.44-78.49,21.81-117.93,9.21-19.78,10.92-24.92,17.09-39.54,6.23-14.85,15.05-40,17.57-51.24"/><path class="cls-1" d="M308.48,65.35c-11.07,7.08-64.61,5.86-80.15,1-11.47-3.59-6-48.16,1.64-54.74C239.81,1.49,305,1,313.89,15c5.23,8.18,4.47,44.07-5.41,50.38"/><path class="cls-1" d="M46.88,263.45C48.34,501.22,366.81,518.8,445,387.82c4.76-10.42,45.24-12.27,49.21.49C354.59,613.52,6.5,517,6.5,263.45,6.5,145.59,74.44,52.57,181.23,29.61c11.14-2.51,19.65,31,9.82,35.65C109,84.79,46.35,175.29,46.88,263.45"/><rect class="cls-2" width="500" height="518.33"/></svg>